# xmcd CD database file
#
# Track frame offsets:
#	182
#	15225
#	24707
#	42467
#	58777
#	71930
#	85670
#	104192
#	115267
#	129647
#	138317
#	150315
#	166697
#	181967
#	196805
#	205375
#	216475
#	228652
#	243392
#	255137
#
# Disc length: 3535 seconds
#
# Revision: 3
# Processed by: cddbd v1.5.2PL0 Copyright (c) Steve Scherf et al.
# Submitted via: jetAudio 7
#
DISCID=1a0dcd14
DTITLE=Elvis Presley - Take My Hand Elvis Presley Gospel Favourites
DYEAR=1999
DGENRE=Gospel
TTITLE0=Take My Hand, Precious Lord
TTITLE1=I Believe
TTITLE2=It's No Secret (What God Can Do)
TTITLE3=Amazing Graze
TTITLE4=Turn Your Eyes Upon Jesus/Nearer My God To Thee
TTITLE5=How Great Thou Art
TTITLE6=Farther Along
TTITLE7=Crying In The Chapel
TTITLE8=In The Garden
TTITLE9=Working On The Building
TTITLE10=He Touched Me
TTITLE11=Where Could I Go But To The Lord
TTITLE12=(There'll Be) Peace In The Valley (For Me)
TTITLE13=Put Your Hand In The Hand (Of The Man From Galilee)
TTITLE14=By And By
TTITLE15=Somebody Bigger Than You And I
TTITLE16=Joshua Fit The Battle
TTITLE17=Reach Out To Jesus
TTITLE18=Swing Down Sweet Chariot
TTITLE19=Milky White Way
EXTD=Year: 1999
EXTT0=
EXTT1=
EXTT2=
EXTT3=
EXTT4=
EXTT5=
EXTT6=
EXTT7=
EXTT8=
EXTT9=
EXTT10=
EXTT11=
EXTT12=
EXTT13=
EXTT14=
EXTT15=
EXTT16=
EXTT17=
EXTT18=
EXTT19=
PLAYORDER=
